<svg width="51" height="28" viewBox="0 0 51 28" fill="none" xmlns="http://www.w3.org/2000/svg">
<g clip-path="url(#clip0_14065_23071)">
<path d="M23.3928 12.9259H28.4033L29.8775 11.2161L21.2308 0H0L10.6802 13.8525C12.0864 15.6769 14.26 16.7457 16.5642 16.7457H25.7563L26.789 15.4063L23.3928 12.9259Z" fill="#E51E2D"/>
<path d="M31.1956 12.9261H40.0927C41.2443 12.9261 42.3311 12.3923 43.0347 11.4795L50.4396 1.87451H37.277L31.6032 9.23377L31.0608 12.7521L31.1956 12.9261Z" fill="#E51E2D"/>
<path d="M31.0343 12.926H31.1957L31.0619 12.752L31.0343 12.926Z" fill="#E51E2D"/>
<path d="M33.8733 13.7983L32.5138 14.6347L30.6809 15.7618L30.6098 16.7457L30.3879 19.8108L27.8312 17.3082L23.3927 19.8108L17.0799 27.9989H33.0328C34.8423 27.9989 36.55 27.1594 37.6559 25.7256L46.8523 13.7983H33.8744H33.8733Z" fill="#E51E2D"/>
</g>
<defs>
<clipPath id="clip0_14065_23071">
<rect width="50.4397" height="28" fill="white"/>
</clipPath>
</defs>
</svg>
